<?xml version="1.0" encoding="UTF-8"?>
<svg width="42px" height="41px" viewBox="0 0 42 41" version="1.1" xmlns="http://www.w3.org/2000/svg" xmlns:xlink="http://www.w3.org/1999/xlink">
    <!-- Generator: Sketch 48.2 (47327) - http://www.bohemiancoding.com/sketch -->
    <title>github - anticon</title>
    <desc>Created with Sketch.</desc>
    <defs></defs>
    <g id="Desktop" stroke="none" stroke-width="1" fill="none" fill-rule="evenodd" transform="translate(-1013.000000, -822.000000)">
        <g id="Group-3" transform="translate(80.000000, 97.000000)" fill="#CACACA">
            <path d="M933.52794,746.389735 C933.52794,743.593078 934.072473,740.91747 935.161556,738.362832 C936.250638,735.808194 937.716172,733.609893 939.558201,731.767865 C941.400229,729.925836 943.59853,728.460302 946.153168,727.37122 C948.707807,726.282137 951.383414,725.737604 954.180071,725.737604 C956.976727,725.737604 959.652335,726.282137 962.206973,727.37122 C964.761611,728.460302 966.959912,729.925836 968.801941,731.767865 C970.643969,733.609893 972.109503,735.808194 973.198586,738.362832 C974.287668,740.91747 974.832201,743.593078 974.832201,746.389735 C974.832201,750.88052 973.521288,754.920821 970.899423,758.51076 C968.277557,762.1007 964.909519,764.594796 960.795206,765.993124 C960.580079,765.993124 960.418736,765.952788 960.311172,765.872116 C960.203608,765.791443 960.143105,765.710771 960.129659,765.630098 C960.116214,765.549426 960.109491,765.428418 960.109491,765.267073 C960.0826,765.213291 960.069155,765.172955 960.069155,765.146064 L960.069155,759.942695 C960.069155,758.302349 959.491009,756.904041 958.334699,755.747731 C961.427155,755.209913 963.739741,754.060343 965.272524,752.298987 C966.805307,750.537631 967.571687,748.406557 967.571687,745.9057 C967.571687,743.566189 966.818752,741.535955 965.31286,739.814935 C965.850679,738.093916 965.756562,736.278805 965.030507,734.369549 C964.277561,734.315767 963.457399,734.443497 962.569999,734.752743 C961.682598,735.061989 961.02378,735.351062 960.593525,735.619971 C960.16327,735.88888 959.773358,736.14434 959.423776,736.386359 C957.864102,735.956104 956.12294,735.74098 954.200239,735.74098 C952.277537,735.74098 950.549821,735.956104 949.017038,736.386359 C948.721238,736.171231 948.378384,735.935939 947.988465,735.680475 C947.598547,735.425011 946.919561,735.11577 945.951487,734.752743 C944.983414,734.389715 944.109472,734.235095 943.329635,734.288877 C942.576689,736.225024 942.496017,738.067025 943.087618,739.814935 C941.608617,741.535955 940.869127,743.566189 940.869127,745.9057 C940.869127,748.406557 941.622062,750.530908 943.127954,752.278819 C944.633846,754.026729 946.946431,755.183022 950.065779,755.747731 C949.259051,756.527568 948.721241,757.468737 948.452331,758.571265 C946.166602,759.135974 944.566616,758.732616 943.652324,757.361179 C941.958196,754.887213 940.438881,753.999826 939.094335,754.69899 C938.906098,754.887227 938.932989,755.082183 939.175007,755.283865 C939.417025,755.485547 939.780047,755.754452 940.264084,756.090589 C940.748121,756.426726 941.111143,756.79647 941.353161,757.199834 C941.380052,757.253616 941.454001,757.448572 941.57501,757.784709 C941.69602,758.120846 941.817027,758.443532 941.938036,758.752778 C942.059045,759.062023 942.287615,759.404878 942.623751,759.781351 C942.959888,760.157824 943.349801,760.473787 943.793501,760.729251 C944.237201,760.984715 944.848961,761.172949 945.628798,761.293958 C946.408635,761.414967 947.296022,761.42169 948.290987,761.314126 L948.290987,765.367913 C948.290987,765.40825 948.284264,765.475476 948.270818,765.569594 C948.257373,765.663712 948.230482,765.730939 948.190146,765.771275 C948.14981,765.811612 948.096029,765.851947 948.028801,765.892284 C947.961574,765.93262 947.87418,765.952788 947.766616,765.952788 C947.659052,765.952788 947.5246,765.939343 947.363254,765.912452 C943.275833,764.487233 939.94813,761.993136 937.380046,758.430088 C934.811963,754.86704 933.52794,750.853629 933.52794,746.389735 Z" id="github---anticon"></path>
        </g>
    </g>
</svg>